<?xml version="1.0" encoding="utf-8"?>
<!-- Generator: Adobe Illustrator 26.0.3, SVG Export Plug-In . SVG Version: 6.00 Build 0)  -->
<svg version="1.1" id="Layer_1" xmlns="http://www.w3.org/2000/svg" xmlns:xlink="http://www.w3.org/1999/xlink" x="0px" y="0px"
	 viewBox="0 0 1211.71 727.02" style="enable-background:new 0 0 1211.71 727.02;" xml:space="preserve">
<style type="text/css">
	.st0{fill:none;stroke:#DED3A6;stroke-width:9.1825;stroke-linejoin:round;stroke-miterlimit:10;}
</style>
<g>
	<path class="st0" d="M292.31,18.15c104.66,0,226.05,89.2,226.05,200.37S389.93,418.88,292.31,418.88h-79.02
		c-3.33,0-5.08,3.34-2.83,5.41l313.46,288.85c2.85,2.63,0.64,6.86-3.58,6.86H363.29c-1.33,0-2.6-0.46-3.51-1.27L14.85,413.76
		c-3.08-2.72-4.8-6.35-4.8-10.11V311.5c0-4.16,4-7.54,8.94-7.54h250.6c34.72,0,111.95-26.73,111.95-84.76
		c0-58.94-77.23-87.96-111.95-87.96H18.99c-4.94,0-8.94-3.38-8.94-7.54V26.6c0-4.67,4.49-8.45,10.03-8.45H292.31z"/>
	<path class="st0" d="M1067.6,255.56v455.87c0,4.73,4.55,8.57,10.16,8.57h114.62c5.61,0,10.16-3.84,10.16-8.57V26.71
		c0-4.73-4.55-8.57-10.16-8.57h-119.9c-2.34,0-4.51,1.06-5.67,2.77L903.51,261.73c-1.19,1.75-4.18,1.75-5.37,0L734.58,20.92
		c-1.16-1.71-3.33-2.77-5.67-2.77H607.92c-5.61,0-10.16,3.84-10.16,8.57v684.72c0,4.73,4.55,8.57,10.16,8.57h114.62
		c5.61,0,10.16-3.84,10.16-8.57V255.55c0-0.66,1.02-0.9,1.43-0.34l117.11,161.04h98.63l116.3-161.03
		C1066.58,254.66,1067.6,254.9,1067.6,255.56z"/>
</g>
</svg>
